<?xml version="1.0" encoding="UTF-8" standalone="no"?>
<!DOCTYPE svg PUBLIC "-//W3C//DTD SVG 1.1//EN" "http://www.w3.org/Graphics/SVG/1.1/DTD/svg11.dtd">
<svg width="100%" height="100%" viewBox="0 0 906 722" version="1.1" xmlns="http://www.w3.org/2000/svg" xmlns:xlink="http://www.w3.org/1999/xlink" xml:space="preserve" xmlns:serif="http://www.serif.com/" style="fill-rule:evenodd;clip-rule:evenodd;stroke-linejoin:round;stroke-miterlimit:2;">
    <g>
        <g transform="matrix(0.0848385,0,0,0.992511,23.9694,-3.4492)">
            <rect x="25.055" y="41.94" width="853.149" height="567.561" style="fill:rgb(239,232,210);"/>
        </g>
        <g transform="matrix(0.922617,0,0,0.272656,75.7788,445.938)">
            <rect x="25.055" y="41.94" width="853.149" height="567.561" style="fill:rgb(239,232,210);"/>
        </g>
        <g transform="matrix(0.380055,0,0,0.785646,544.964,15.1261)">
            <rect x="25.055" y="41.94" width="853.149" height="567.561" style="fill:rgb(239,232,210);"/>
        </g>
        <g transform="matrix(0.885431,0,0,0.102815,3.91081,43.7643)">
            <rect x="25.055" y="41.94" width="853.149" height="567.561" style="fill:rgb(239,232,210);"/>
        </g>
    </g>
    <g transform="matrix(0.095238,-1.4585e-16,-1.4585e-16,-0.095238,-437.496,877.93)">
        <path d="M5952,9209C5881,9187 5830,9124 5819,9043L5812,8993L5428,8988C4990,8982 4978,8979 4840,8888C4746,8825 4675,8733 4628,8610L4594,8521L4594,5791C4594,2850 4590,3031 4646,2903C4708,2764 4850,2635 4992,2591C5059,2570 5086,2567 5268,2569L5470,2571L5503,2464C5520,2405 5551,2308 5571,2247L5606,2137L5584,2118C5564,2101 5540,2099 5377,2100C5016,2102 5031,2104 5017,2073C5007,2051 5008,2043 5025,2026C5046,2005 5077,2005 8731,2005L13180,2005L13944,2006L13960,2031C13973,2051 13974,2062 13966,2078C13955,2099 13944,2099 13535,2102C13231,2104 13112,2109 13103,2118C13088,2133 13107,2211 13176,2420L13225,2567L13445,2573C13567,2576 13681,2584 13699,2591C13870,2650 13998,2782 14073,2979L14096,3040L14099,5733C14101,7548 14098,8450 14091,8500C14062,8696 13904,8885 13707,8959C13648,8982 13628,8983 13297,8986L12950,8989L12937,9044C12921,9116 12881,9171 12826,9198C12782,9219 12767,9220 12424,9217L12066,9214L12026,9181C11976,9141 11951,9098 11940,9039L11933,8993L9374,8991L6815,8988L6815,9013C6815,9054 6784,9127 6754,9160C6700,9217 6688,9219 6319,9218C6132,9218 5967,9213 5952,9209ZM10979,8618C10999,8595 10999,8563 10998,6228L10997,3861L10973,3841C10950,3823 10853,3822 7973,3822L4997,3822L4971,3848L4946,3874L4946,8443L4971,8492C5002,8554 5042,8592 5103,8620C5150,8641 5155,8641 8054,8641L10958,8642L10979,8618ZM13609,8612C13677,8577 13727,8509 13744,8429C13752,8390 13755,7614 13753,5754C13750,3397 13748,3130 13733,3091C13708,3026 13666,2978 13605,2944L13550,2914L12384,2911L11217,2908L11212,3126C11209,3246 11208,4528 11209,5974L11211,8603L11235,8622C11257,8641 11313,8642 12406,8642L13553,8642L13609,8612ZM7106,3326C7109,3016 7109,3014 7132,2999C7162,2980 7211,2988 7225,3015C7232,3028 7235,3146 7233,3337L7231,3638L8131,3641L9030,3644L9030,3334C9030,3038 9031,3023 9051,3003C9078,2976 9094,2977 9128,3004L9156,3026L9156,3644L10048,3644C10538,3644 10947,3641 10956,3637C10999,3620 11004,3585 11004,3266L11004,2960L10952,2908L5150,2914L5103,2936C5050,2960 4996,3010 4969,3059C4953,3087 4950,3130 4947,3339C4944,3579 4945,3587 4967,3615L4989,3644L7103,3638L7106,3326ZM11378,2567L11757,2559L11818,2374C11851,2272 11878,2186 11879,2182C11880,2177 10741,2171 9348,2168C7124,2163 6815,2164 6815,2177C6815,2186 6824,2218 6835,2249C6846,2280 6873,2361 6894,2431C6916,2500 6934,2559 6936,2563C6941,2572 10949,2575 11378,2567Z" style="fill-rule:nonzero;"/>
        <path d="M5108,8472C5074,8453 5061,8430 5061,8387C5061,8355 5068,8339 5093,8314C5120,8287 5130,8283 5159,8289C5243,8306 5271,8399 5209,8455C5174,8486 5143,8491 5108,8472Z" style="fill-rule:nonzero;"/>
        <path d="M10760,8468C10724,8448 10710,8422 10710,8375C10710,8323 10762,8280 10814,8288C10881,8299 10916,8368 10884,8427C10867,8459 10829,8485 10801,8484C10794,8483 10776,8476 10760,8468Z" style="fill-rule:nonzero;"/>
        <g transform="matrix(10.5,-1.608e-14,-1.608e-14,-10.5,4593.72,9218.27)">
            <path d="M92.598,85.073C94.789,84.502 179.551,84.121 321.55,84.026C574.122,83.93 553.645,83.264 562.217,91.169C564.693,93.454 567.645,97.169 568.883,99.359L570.979,103.454L570.979,452.406L568.026,457.835C566.312,460.882 563.264,464.597 561.074,466.121C552.503,472.311 568.598,471.93 322.027,471.93C125.074,471.93 96.217,471.74 91.836,470.406C85.17,468.501 78.408,462.406 75.36,455.74L72.979,450.406L72.693,280.406C72.408,126.216 72.598,109.835 74.027,104.311C76.503,95.073 83.646,87.645 92.598,85.073ZM114.884,124.407C113.36,126.788 114.027,430.121 114.027,430.121L116.789,432.502L119.646,434.978C119.646,434.978 531.572,438.568 533.572,434.283C534.048,433.33 533.55,151.359 533.55,151.359C533.55,127.454 532.788,123.264 528.693,120.978C527.36,120.311 120.027,120.502 118.789,120.978C117.646,121.454 115.836,122.978 114.884,124.407Z"/>
        </g>
        <path d="M5124,8130C5081,8115 5082,8169 5082,6288L5082,4485L5105,4468C5138,4445 5169,4448 5196,4476L5219,4501L5219,6296C5219,7994 5217,8093 5200,8108C5178,8128 5145,8137 5124,8130Z" style="fill-rule:nonzero;"/>
        <path d="M10748,8108C10732,8090 10731,7949 10731,6292L10731,4496L10759,4474C10794,4446 10816,4446 10845,4476L10868,4501L10868,6296C10868,8023 10867,8093 10848,8110C10823,8133 10770,8132 10748,8108Z" style="fill-rule:nonzero;"/>
        <path d="M5135,4095C5073,4080 5051,4022 5094,3984C5115,3964 5180,3964 7964,3961C10687,3959 10814,3960 10836,3978C10866,4002 10867,4048 10837,4078L10814,4100L7993,4102C6441,4103 5155,4100 5135,4095Z" style="fill-rule:nonzero;"/>
        <path d="M12533,8496C12520,8481 12516,8455 12516,8376L12516,8276L12450,8269C12414,8265 12380,8262 12375,8262C12370,8262 12356,8285 12344,8313C12306,8401 12289,8421 12249,8421C12205,8421 12165,8378 12176,8343C12182,8323 12219,8236 12229,8219C12231,8215 12211,8199 12184,8184C12136,8156 12135,8155 12121,8175C12063,8256 12018,8272 11966,8231C11925,8199 11929,8160 11981,8107L12023,8063L11994,8027C11978,8007 11962,7991 11960,7991C11957,7991 11928,8007 11897,8028C11827,8072 11791,8074 11761,8036C11749,8021 11739,8001 11739,7991C11739,7970 11792,7919 11847,7886C11890,7860 11892,7856 11872,7828C11858,7809 11855,7809 11814,7826C11768,7844 11721,7848 11701,7835C11680,7821 11664,7779 11670,7753C11675,7734 11695,7718 11745,7695C11782,7677 11812,7657 11809,7650C11807,7643 11768,7638 11711,7636C11604,7632 11578,7618 11578,7560C11578,7502 11605,7487 11703,7487L11789,7487L11794,7431C11796,7401 11793,7373 11787,7369C11781,7365 11751,7358 11721,7354C11652,7346 11618,7311 11628,7261C11640,7202 11689,7189 11785,7218C11834,7233 11835,7233 11847,7206C11857,7185 11857,7177 11847,7174C11817,7164 11765,7122 11750,7096C11735,7070 11736,7065 11756,7038C11774,7014 11786,7009 11820,7010C11845,7010 11875,7019 11893,7033L11925,7055L11954,7024L11984,6993L11930,6936C11869,6872 11862,6841 11900,6806C11941,6767 11989,6775 12044,6830C12093,6881 12107,6886 12127,6863C12133,6855 12155,6840 12175,6831C12217,6811 12217,6809 12195,6753C12172,6695 12179,6648 12214,6622C12255,6592 12294,6607 12323,6664C12335,6689 12348,6717 12350,6728C12355,6747 12361,6747 12433,6736L12511,6725L12514,6646C12517,6556 12533,6531 12584,6531C12639,6531 12656,6559 12654,6650L12652,6727L12713,6734C12746,6738 12782,6742 12793,6744C12809,6746 12819,6733 12837,6689C12866,6617 12891,6598 12937,6614C12974,6627 12998,6653 12999,6681C12999,6691 12987,6724 12971,6754C12953,6791 12948,6810 12956,6812C12963,6815 12991,6832 13019,6850L13069,6884L13129,6828C13196,6766 13225,6759 13266,6796C13313,6838 13307,6871 13239,6939L13186,6992L13232,7056L13264,7033C13286,7018 13313,7010 13343,7009C13382,7009 13394,7014 13411,7037C13442,7078 13423,7118 13355,7155C13311,7179 13304,7187 13310,7207C13313,7219 13318,7230 13319,7232C13320,7234 13352,7227 13389,7217C13470,7196 13508,7203 13529,7244C13541,7268 13542,7282 13533,7307C13522,7340 13496,7353 13411,7366C13363,7373 13362,7377 13373,7447L13380,7487L13462,7487C13531,7487 13549,7490 13566,7508C13591,7533 13593,7578 13571,7610C13556,7631 13546,7634 13462,7634C13389,7634 13367,7637 13363,7649C13359,7660 13368,7670 13394,7681C13415,7689 13435,7697 13439,7697C13456,7697 13493,7746 13493,7768C13493,7781 13485,7803 13476,7818C13456,7848 13416,7851 13351,7828C13307,7812 13299,7815 13289,7849C13284,7866 13294,7876 13346,7905C13431,7951 13444,7986 13395,8040C13364,8075 13323,8070 13260,8025L13206,7986L13176,8022L13146,8057L13193,8104C13248,8157 13253,8189 13215,8227C13173,8269 13136,8262 13080,8202L13032,8151L12985,8180L12938,8210L12972,8281C12991,8319 13004,8360 13001,8371C12991,8410 12922,8435 12887,8413C12880,8409 12859,8372 12840,8332C12817,8284 12799,8259 12789,8262C12781,8264 12751,8268 12723,8271C12660,8279 12653,8293 12660,8396C12665,8462 12663,8473 12643,8493C12615,8521 12557,8523 12533,8496ZM12686,8112C12728,8104 12784,8089 12810,8079C12939,8028 13057,7920 13124,7792C13182,7679 13199,7615 13198,7498C13198,7372 13162,7259 13090,7158C12908,6903 12606,6820 12317,6947C12116,7036 11959,7281 11960,7505C11960,7766 12160,8028 12412,8099C12517,8129 12581,8132 12686,8112Z" style="fill-rule:nonzero;"/>
        <path d="M12515,7968C12304,7939 12151,7791 12115,7581C12091,7442 12139,7289 12240,7181C12420,6988 12735,6987 12922,7178C13058,7317 13095,7531 13013,7704C12954,7830 12800,7948 12676,7964C12649,7967 12614,7972 12600,7973C12586,7975 12548,7973 12515,7968Z" style="fill-rule:nonzero;"/>
        <path d="M13306,8499C13285,8485 13283,8474 13283,8400C13283,8339 13287,8313 13299,8301C13325,8275 13367,8269 13397,8286C13422,8300 13424,8307 13427,8390C13430,8470 13428,8481 13408,8497C13380,8520 13337,8521 13306,8499Z" style="fill-rule:nonzero;"/>
        <path d="M13484,8499C13463,8484 13461,8474 13461,8395C13461,8297 13469,8283 13529,8281C13585,8280 13596,8298 13599,8393C13601,8469 13600,8478 13577,8496C13548,8520 13515,8521 13484,8499Z" style="fill-rule:nonzero;"/>
        <path d="M11403,8484C11375,8456 11372,8316 11399,8294C11423,8274 11852,8266 11886,8285C11942,8314 11950,8444 11899,8484C11875,8503 11856,8505 11648,8505C11438,8505 11423,8504 11403,8484Z" style="fill-rule:nonzero;"/>
        <path d="M11401,7867C11372,7834 11370,7807 11393,7777C11411,7754 11424,7749 11462,7749C11505,7749 11510,7752 11523,7783C11547,7839 11517,7886 11456,7886C11432,7886 11411,7878 11401,7867Z" style="fill-rule:nonzero;"/>
        <path d="M11404,7593C11377,7565 11375,7517 11401,7493C11426,7471 11491,7471 11513,7493C11533,7513 11534,7574 11514,7591C11506,7597 11483,7606 11463,7609C11435,7614 11421,7610 11404,7593Z" style="fill-rule:nonzero;"/>
        <path d="M11424,7343C11383,7328 11367,7261 11398,7230C11425,7204 11503,7208 11523,7237C11569,7302 11504,7371 11424,7343Z" style="fill-rule:nonzero;"/>
        <path d="M11398,7071C11373,7045 11373,6999 11400,6969C11425,6941 11502,6944 11523,6974C11562,7029 11527,7088 11456,7088C11433,7088 11408,7080 11398,7071Z" style="fill-rule:nonzero;"/>
        <path d="M11398,6809C11389,6799 11382,6774 11382,6751C11382,6702 11401,6689 11470,6689C11506,6689 11520,6693 11529,6709C11546,6740 11541,6788 11520,6808C11496,6830 11421,6831 11398,6809Z" style="fill-rule:nonzero;"/>
        <path d="M11424,6523C11382,6509 11372,6487 11372,6416C11372,6311 11365,6314 11634,6308C11922,6301 11928,6303 11928,6422C11928,6469 11923,6484 11902,6506L11876,6532L11658,6530C11538,6529 11433,6526 11424,6523Z" style="fill-rule:nonzero;"/>
        <path d="M13300,6512C13275,6484 13275,6352 13301,6329C13329,6304 13363,6298 13390,6311C13426,6330 13429,6340 13429,6422C13429,6481 13425,6500 13410,6514C13384,6537 13322,6536 13300,6512Z" style="fill-rule:nonzero;"/>
        <path d="M13479,6520C13464,6511 13461,6494 13461,6421C13461,6342 13463,6331 13484,6316C13516,6294 13551,6296 13577,6321C13606,6351 13607,6487 13578,6514C13557,6533 13507,6536 13479,6520Z" style="fill-rule:nonzero;"/>
        <path d="M12532,6462C12520,6450 12516,6423 12516,6354L12516,6262L12445,6250C12406,6244 12366,6236 12356,6232C12342,6226 12331,6240 12302,6296C12256,6388 12231,6412 12194,6399C12179,6394 12157,6377 12145,6361L12124,6333L12163,6252L12201,6171L12131,6107C12093,6072 12058,6041 12053,6039C12048,6037 12014,6058 11977,6084C11889,6147 11839,6145 11814,6079C11800,6040 11815,6016 11890,5959C11928,5930 11960,5904 11960,5901C11960,5898 11953,5886 11945,5874C11937,5863 11925,5834 11919,5810L11907,5768L11836,5782C11739,5800 11731,5800 11702,5770C11648,5717 11684,5658 11778,5644C11874,5630 11870,5634 11871,5564L11872,5502L11829,5491C11692,5457 11669,5442 11681,5387C11695,5325 11758,5313 11867,5350L11905,5364L11923,5315C11934,5288 11949,5255 11958,5241C11972,5219 11972,5215 11957,5207C11915,5183 11831,5110 11821,5087C11812,5067 11814,5057 11832,5031C11845,5014 11865,4996 11876,4993C11901,4985 11963,5015 12023,5063L12063,5095L12124,5041C12157,5012 12188,4988 12193,4988C12204,4988 12203,4948 12192,4941C12187,4938 12172,4907 12159,4873C12133,4801 12139,4778 12191,4756C12241,4735 12270,4755 12308,4836C12336,4895 12343,4904 12363,4899C12375,4896 12414,4888 12450,4881L12516,4868L12516,4776C12516,4689 12517,4683 12544,4662C12564,4646 12581,4642 12599,4647C12648,4659 12653,4669 12653,4773C12653,4867 12654,4872 12676,4876C12689,4879 12725,4886 12756,4892C12787,4898 12816,4901 12822,4898C12827,4894 12846,4864 12863,4829C12911,4734 12958,4715 13010,4770C13039,4801 13036,4824 12994,4900C12974,4937 12957,4969 12957,4971C12957,4973 12990,5001 13030,5034L13103,5093L13166,5045C13243,4986 13278,4978 13317,5008C13338,5025 13346,5040 13346,5066C13346,5095 13337,5107 13289,5144C13189,5221 13190,5219 13225,5292C13241,5327 13258,5355 13263,5355C13267,5355 13301,5348 13339,5339C13391,5327 13413,5326 13433,5335C13486,5359 13496,5435 13450,5460C13439,5466 13397,5477 13359,5484L13288,5497L13282,5627L13321,5633C13428,5650 13444,5655 13464,5682C13483,5708 13483,5711 13466,5748C13444,5794 13418,5802 13346,5786C13260,5768 13257,5769 13229,5835C13215,5869 13204,5899 13204,5902C13204,5906 13233,5931 13270,5959C13343,6014 13360,6038 13350,6072C13325,6156 13273,6151 13139,6053C13111,6033 13107,6035 13018,6117L12960,6170L12995,6238C13036,6318 13038,6342 13007,6370C12949,6422 12917,6408 12866,6306C12846,6265 12829,6232 12828,6231C12827,6230 12788,6237 12742,6247L12658,6265L12655,6353C12652,6416 12647,6446 12635,6460C12614,6483 12555,6484 12532,6462ZM12693,6095C12800,6070 12872,6030 12947,5954C13166,5734 13170,5413 12957,5197C12823,5060 12629,5008 12439,5057C12179,5123 12001,5405 12054,5665C12116,5970 12403,6163 12693,6095Z" style="fill-rule:nonzero;"/>
        <path d="M12482,5953C12180,5878 12089,5496 12322,5283C12397,5214 12474,5185 12579,5184C12683,5184 12760,5213 12837,5284C12910,5351 12943,5407 12962,5499C13000,5677 12909,5852 12739,5930C12673,5960 12553,5971 12482,5953Z" style="fill-rule:nonzero;"/>
        <path d="M11382,6101C11361,6050 11398,6006 11463,6006C11509,6006 11540,6033 11540,6073C11540,6121 11523,6132 11455,6132C11399,6132 11394,6130 11382,6101Z" style="fill-rule:nonzero;"/>
        <path d="M11405,5864C11376,5843 11374,5786 11401,5761C11428,5737 11500,5738 11522,5763C11546,5789 11544,5833 11519,5859C11493,5884 11438,5887 11405,5864Z" style="fill-rule:nonzero;"/>
        <path d="M11429,5607C11391,5600 11373,5559 11388,5515C11409,5455 11521,5460 11536,5522C11550,5578 11498,5620 11429,5607Z" style="fill-rule:nonzero;"/>
        <path d="M11399,5325C11374,5297 11377,5244 11405,5224C11438,5202 11501,5203 11522,5227C11545,5253 11544,5305 11520,5327C11494,5351 11422,5350 11399,5325Z" style="fill-rule:nonzero;"/>
        <path d="M11435,4757C11389,4711 11423,4631 11487,4631C11553,4631 11585,4709 11536,4755C11506,4783 11462,4784 11435,4757Z" style="fill-rule:nonzero;"/>
        <path d="M11662,4758C11636,4730 11639,4667 11668,4647C11720,4610 11792,4644 11792,4706C11792,4766 11702,4802 11662,4758Z" style="fill-rule:nonzero;"/>
        <path d="M13251,4757C13206,4711 13241,4631 13305,4631C13370,4631 13403,4710 13359,4759C13336,4784 13277,4783 13251,4757Z" style="fill-rule:nonzero;"/>
        <path d="M13477,4756C13433,4709 13466,4631 13529,4631C13600,4631 13631,4730 13572,4769C13549,4785 13496,4778 13477,4756Z" style="fill-rule:nonzero;"/>
        <path d="M13112,4399C13097,4390 13094,4372 13094,4295C13094,4210 13096,4200 13117,4185C13130,4176 13150,4169 13162,4169C13174,4169 13194,4176 13207,4185C13228,4200 13230,4210 13230,4293C13230,4350 13225,4390 13217,4397C13202,4413 13137,4413 13112,4399Z" style="fill-rule:nonzero;"/>
        <path d="M11895,4381C11875,4358 11881,4217 11903,4199C11923,4182 11989,4183 12006,4201C12016,4210 12022,4244 12024,4293C12027,4359 12024,4372 12007,4385C11979,4406 11914,4404 11895,4381Z" style="fill-rule:nonzero;"/>
        <path d="M11663,4300C11608,4281 11592,4265 11592,4231C11592,4198 11645,4137 11674,4137C11684,4137 11712,4147 11736,4158C11775,4175 11781,4182 11781,4210C11781,4241 11757,4291 11734,4307C11719,4318 11709,4317 11663,4300Z" style="fill-rule:nonzero;"/>
        <path d="M12149,4262C12107,4192 12134,4136 12220,4120C12253,4114 12261,4117 12287,4146C12345,4211 12310,4278 12212,4292C12174,4297 12169,4294 12149,4262Z" style="fill-rule:nonzero;"/>
        <path d="M12844,4268C12796,4247 12780,4210 12805,4172C12858,4087 12894,4076 12949,4125L12983,4156L12957,4210C12934,4260 12910,4285 12887,4284C12882,4283 12863,4277 12844,4268Z" style="fill-rule:nonzero;"/>
        <path d="M11416,4119C11404,4103 11387,4074 11377,4055C11360,4020 11360,4019 11382,3995C11394,3982 11426,3965 11453,3958L11501,3944L11536,3983C11555,4004 11571,4031 11571,4042C11571,4053 11553,4082 11531,4105C11481,4157 11445,4161 11416,4119Z" style="fill-rule:nonzero;"/>
        <path d="M13041,4081C12960,4058 12891,4018 12835,3962C12766,3892 12731,3795 12732,3670C12732,3576 12758,3505 12825,3413C12863,3361 12961,3286 13026,3259C13063,3244 13179,3238 13225,3249C13236,3252 13264,3259 13286,3264C13361,3283 13400,3319 13457,3424C13528,3554 13539,3590 13538,3691C13535,3916 13383,4075 13157,4090C13118,4093 13068,4089 13041,4081ZM13224,3917C13265,3901 13337,3831 13357,3785C13377,3742 13384,3633 13367,3633C13362,3633 13341,3655 13321,3683C13251,3777 13216,3804 13153,3809C13064,3817 13021,3786 12962,3677C12945,3644 12922,3616 12912,3614C12897,3611 12894,3619 12894,3675C12894,3710 12900,3754 12908,3773C12930,3824 12988,3886 13036,3907C13082,3928 13181,3933 13224,3917Z" style="fill-rule:nonzero;"/>
        <path d="M11844,4073C11796,4064 11749,4036 11741,4012C11739,4005 11798,3937 11872,3861C12171,3555 12193,3529 12186,3498C12177,3461 12143,3434 12106,3434C12082,3434 12039,3472 11851,3666C11598,3926 11605,3922 11560,3820C11526,3743 11526,3612 11560,3525C11598,3427 11669,3342 11763,3283L11845,3231L11950,3227C12058,3223 12126,3234 12151,3259C12158,3266 12177,3281 12194,3291C12210,3302 12232,3328 12243,3348C12253,3369 12275,3410 12290,3440C12332,3521 12355,3651 12340,3733C12310,3911 12208,4024 12038,4068C11970,4086 11917,4087 11844,4073Z" style="fill-rule:nonzero;"/>
        <path d="M12388,4021C12345,3996 12345,3974 12390,3885C12437,3792 12464,3774 12515,3802C12550,3822 12554,3858 12527,3921C12482,4025 12443,4053 12388,4021Z" style="fill-rule:nonzero;"/>
        <path d="M11314,3819C11271,3714 11291,3649 11365,3651C11411,3652 11435,3669 11435,3702C11435,3715 11439,3739 11445,3754C11467,3812 11432,3854 11360,3854C11334,3854 11326,3847 11314,3819Z" style="fill-rule:nonzero;"/>
        <path d="M12438,3609C12430,3596 12417,3563 12410,3535C12399,3489 12399,3482 12418,3464C12429,3453 12456,3441 12477,3437C12511,3431 12517,3434 12536,3466C12548,3485 12561,3522 12564,3548C12571,3589 12568,3597 12548,3614C12514,3641 12457,3639 12438,3609Z" style="fill-rule:nonzero;"/>
        <path d="M11375,3496C11328,3478 11328,3454 11373,3372C11421,3284 11454,3257 11492,3274C11506,3280 11525,3297 11534,3311C11550,3336 11550,3340 11525,3389C11472,3494 11435,3521 11375,3496Z" style="fill-rule:nonzero;"/>
        <path d="M12269,3306C12246,3294 12219,3276 12208,3267C12198,3257 12160,3236 12124,3218C12076,3195 12058,3181 12056,3162C12050,3123 12063,3089 12089,3071C12121,3050 12168,3066 12275,3134C12405,3216 12424,3246 12382,3295C12355,3328 12317,3331 12269,3306Z" style="fill-rule:nonzero;"/>
        <path d="M12920,3211C12892,3195 12884,3181 12884,3149C12883,3103 12947,3065 12988,3087C13040,3115 13041,3181 12989,3208C12953,3226 12948,3227 12920,3211Z" style="fill-rule:nonzero;"/>
        <path d="M13278,3199C13244,3165 13244,3135 13277,3102C13308,3071 13334,3070 13370,3098C13420,3137 13400,3207 13337,3219C13311,3225 13299,3220 13278,3199Z" style="fill-rule:nonzero;"/>
        <path d="M13090,3173C13063,3143 13067,3082 13098,3062C13137,3037 13173,3041 13199,3074C13224,3107 13221,3154 13191,3177C13164,3198 13110,3195 13090,3173Z" style="fill-rule:nonzero;"/>
        <path d="M11880,3156C11848,3123 11847,3087 11879,3057C11913,3025 11963,3027 11990,3062C12002,3077 12012,3098 12012,3108C12012,3118 12002,3139 11990,3154C11962,3190 11915,3191 11880,3156Z" style="fill-rule:nonzero;"/>
        <path d="M5116,3481C5093,3464 5093,3458 5093,3288C5093,3130 5095,3109 5112,3094C5129,3079 5165,3077 5406,3077C5667,3077 5682,3078 5702,3098C5721,3117 5723,3133 5723,3280C5723,3510 5750,3490 5411,3494C5175,3497 5137,3495 5116,3481Z" style="fill-rule:nonzero;"/>
        <path d="M5966,3484C5933,3468 5930,3448 5934,3269C5937,3155 5942,3106 5952,3094C5965,3078 6008,3077 6378,3077C6733,3077 6792,3079 6812,3093C6835,3109 6836,3115 6836,3287C6836,3458 6835,3464 6812,3480C6792,3494 6735,3496 6390,3496C6123,3495 5982,3491 5966,3484Z" style="fill-rule:nonzero;"/>
        <path d="M7562,3480C7540,3464 7539,3458 7539,3288C7539,3130 7541,3109 7558,3094C7574,3079 7604,3077 7746,3077L7915,3077L7937,3104C7957,3129 7959,3146 7959,3288C7959,3441 7958,3446 7933,3471C7908,3496 7903,3497 7747,3497C7618,3497 7581,3493 7562,3480Z" style="fill-rule:nonzero;"/>
        <path d="M8314,3478C8301,3464 8296,3422 8292,3290C8286,3062 8271,3077 8504,3077C8661,3077 8682,3079 8698,3096C8712,3112 8715,3142 8715,3289C8715,3511 8730,3497 8499,3497C8351,3497 8328,3494 8314,3478Z" style="fill-rule:nonzero;"/>
        <path d="M9545,3478C9525,3461 9523,3448 9519,3297C9516,3140 9521,3103 9549,3085C9555,3080 9639,3077 9736,3077C9958,3076 9944,3062 9944,3288C9944,3508 9955,3497 9733,3497C9591,3497 9565,3494 9545,3478Z" style="fill-rule:nonzero;"/>
        <path d="M10303,3480C10280,3464 10280,3458 10280,3288C10280,3130 10282,3109 10299,3094C10315,3079 10349,3077 10549,3077C10760,3077 10782,3078 10798,3096C10812,3112 10815,3141 10815,3282C10815,3374 10811,3454 10807,3461C10787,3491 10748,3497 10540,3497C10363,3497 10322,3494 10303,3480Z" style="fill-rule:nonzero;"/>
    </g>
</svg>
